<?xml version="1.0" encoding="UTF-8"?>
<svg id="Layer_2" data-name="Layer 2" xmlns="http://www.w3.org/2000/svg" viewBox="0 0 596.94 234">
  <defs>
    <style>
      .cls-1 {
        fill: #030335;
      }
    </style>
  </defs>
  <g id="Ebene_2" data-name="Ebene 2">
    <path class="cls-1" d="M.16,229.62c1.77-5.55,4.1-10.62,6.55-15.64,7.33-14.91,16-29.08,24.87-43.07,23.95-37.17,50.46-72.44,80.04-105.43,15.23-16.72,30.85-32.69,49.1-46.55,10-7.37,20.77-14.45,33.22-17.67,11.15-3.03,24.82-.88,32.35,9.07,11.43,15.03,7.06,38.11,3.94,55.03-5.14,26.57-14.87,51.56-18.24,77.96-.33,2.6-.57,4.72-.26,6.95.43,3.09,2.71,3.31,4.65,1.98,3.84-2.62,6.69-5.92,9.93-9.11,11.32-11.14,21.39-23.29,32.2-35.48,15.12-16.67,33.23-38.47,55.17-46.73,22.02-7.64,37.97,3.48,41.98,25.71,2.33,12.22,2.2,23.29,2.61,35.03.19,4.53.63,18.92,1.03,21.82.29,2.13,3.02,3.51,4.98,2.62,1.23-.55,1.87-1.14,2.66-1.84,18.12-16.29,31.3-38.15,50.29-54.02,7.83-6.61,18.91-12.16,29.57-7.95,11.49,4.08,13.89,16.34,13.87,27.11.13,6.26-3.92,25.98,2.19,27.97,8.62,2.81,22.88-6.37,33.72-10.33,31.02-11.33,63.25-25.21,97.13-22.63,1.96.19,3.4,1.94,3.2,3.9-.18,1.82-1.69,3.18-3.48,3.22-38.08,1.59-71.47,22.65-105.99,36.94-5.25,2.15-10.58,4.25-16.76,5.78-3.57.89-8.71,1.7-13.23.93-9.93-1.58-14.68-10.75-15.58-19.67-.83-6.96-.03-13.97-.34-20.95-.13-2.83.05-5.81-.75-8.56-1.6-5.48-6.37-.28-8.45,1.75-4.51,4.39-8.74,9.15-12.76,13.99-7.85,9.44-14.86,19.57-22.92,28.83-9.4,10.8-20.81,24.62-36.79,25.27-10.49.44-19.47-6.63-23.39-15.79-3.07-6.93-4.05-13.14-4.94-20.02-1.34-11.35-1.37-22.34-2.18-33.31-.34-4.55-.44-9.22-1.26-13.71-2.26-12.42-21.92,7.46-25.74,11.21-15.13,14.83-28.65,31.91-43.27,47.96-8.31,8.91-16.05,17.21-26.6,24.54-9.46,6.68-22.5,10.84-34.01,4.98-21.36-11.23-15.87-39.55-11.92-58.6,4.7-21.66,11.57-42.38,16.28-63.5,1.13-5.07,2.08-10.09,2.75-14.92.7-6.06,4.45-20.01-5.7-17.96-3.51.71-7.76,2.45-11.94,4.64-22.61,12.51-41.88,31.11-60.45,49.23-30.53,30.63-58.71,63.64-85.19,97.85-9.88,12.88-19.48,25.99-28.17,39.66-2.8,4.5-5.56,9.13-7.73,13.9-.76,1.69-2.74,2.45-4.44,1.69-1.57-.71-2.34-2.47-1.82-4.08Z"/>
  </g>
</svg>