<svg width="18" height="20" viewBox="0 0 18 20" fill="none" xmlns="http://www.w3.org/2000/svg">
<path d="M7.95 16.35L4.4 12.8L5.85 11.35L7.95 13.45L12.15 9.25L13.6 10.7L7.95 16.35ZM2 20C1.45 20 0.979333 19.8043 0.588 19.413C0.196667 19.0217 0.000666667 18.5507 0 18V4C0 3.45 0.196 2.97933 0.588 2.588C0.98 2.19667 1.45067 2.00067 2 2H3V0H5V2H13V0H15V2H16C16.55 2 17.021 2.196 17.413 2.588C17.805 2.98 18.0007 3.45067 18 4V18C18 18.55 17.8043 19.021 17.413 19.413C17.0217 19.805 16.5507 20.0007 16 20H2ZM2 18H16V8H2V18Z" fill="white"/>
</svg>
